<svg width="56" height="56" fill="none" xmlns="http://www.w3.org/2000/svg"><g clip-path="url(#a)"><path d="M0 8.915c0-3.12 0-4.68.607-5.873A5.572 5.572 0 0 1 3.042.607C4.234 0 5.795 0 8.915 0h38.17c3.12 0 4.68 0 5.873.607a5.572 5.572 0 0 1 2.435 2.435C56 4.234 56 5.795 56 8.915v38.17c0 3.12 0 4.68-.607 5.873a5.572 5.572 0 0 1-2.435 2.435C51.766 56 50.205 56 47.085 56H8.915c-3.12 0-4.68 0-5.873-.607a5.572 5.572 0 0 1-2.435-2.435C0 51.766 0 50.205 0 47.085V8.915z" fill="#fff"/><path d="M10.78-4.25h35.44c8.327 0 15.03 6.704 15.03 15.03v35.44c0 8.327-6.703 15.03-15.03 15.03H10.78A14.998 14.998 0 0 1-4.25 46.22V10.78c0-8.326 6.704-15.03 15.03-15.03z" fill="url(#b)"/><path d="M12.09 16.453c-.301 0-.585.052-.853.159l5.374 5.532 5.433 5.632.1.12.158.158.159.158.317.338 4.66 4.779c.078.048.303.256.478.344.227.113.472.217.725.226.273.01.551-.068.797-.188.184-.089.265-.217.479-.382l5.394-5.573 5.453-5.612 5.255-5.413a2.307 2.307 0 0 0-1.11-.278h-32.82zm-1.646.674c-.573.543-.932 1.36-.932 2.28v18.165c0 .746.24 1.424.634 1.944l.754-.714 5.612-5.453 4.977-4.82-.099-.118-5.453-5.612-5.454-5.632-.04-.04zm36.289.179l-5.314 5.493-5.434 5.612-.1.099 5.177 5.017 5.611 5.453.338.318a3.262 3.262 0 0 0 .476-1.726V19.408c0-.822-.285-1.566-.754-2.102zm-24.61 11.878l-4.957 4.819-5.632 5.453-.714.694c.377.243.805.397 1.27.397h32.819c.558 0 1.065-.215 1.487-.555l-.357-.357-5.632-5.454-5.175-4.997-4.66 4.799c-.253.167-.421.353-.668.467-.396.183-.83.338-1.267.331-.438-.006-.867-.178-1.26-.371-.197-.097-.302-.193-.534-.387l-4.72-4.839z" fill="#fff"/></g><defs><linearGradient id="b" x1="28.959" y1="60.987" x2="29.022" y2="-3.459" gradientUnits="userSpaceOnUse"><stop stop-color="#70EFFF"/><stop offset="1" stop-color="#5770FF"/></linearGradient><clipPath id="a"><path d="M0 8.915c0-3.12 0-4.68.607-5.873A5.572 5.572 0 0 1 3.042.607C4.234 0 5.795 0 8.915 0h38.17c3.12 0 4.68 0 5.873.607a5.572 5.572 0 0 1 2.435 2.435C56 4.234 56 5.795 56 8.915v38.17c0 3.12 0 4.68-.607 5.873a5.572 5.572 0 0 1-2.435 2.435C51.766 56 50.205 56 47.085 56H8.915c-3.12 0-4.68 0-5.873-.607a5.572 5.572 0 0 1-2.435-2.435C0 51.766 0 50.205 0 47.085V8.915z" fill="#fff"/></clipPath></defs></svg>