<svg width="57" height="56" fill="none" xmlns="http://www.w3.org/2000/svg"><rect x=".959" width="56" height="56" rx="5.6" fill="#fff"/><g clip-path="url(#a)"><path d="M42.807 15.482a33 33 0 0 0-8.232-2.532c-.389.695-.74 1.41-1.054 2.143a30.654 30.654 0 0 0-9.136 0 22.71 22.71 0 0 0-1.054-2.143 33.229 33.229 0 0 0-8.238 2.539c-5.21 7.707-6.622 15.223-5.916 22.633a33.182 33.182 0 0 0 10.096 5.068c.817-1.1 1.54-2.265 2.162-3.486a21.476 21.476 0 0 1-3.405-1.626c.286-.207.565-.42.835-.628a23.717 23.717 0 0 0 20.186 0c.273.223.552.437.834.628a21.551 21.551 0 0 1-3.411 1.629 24.172 24.172 0 0 0 2.162 3.483 33.029 33.029 0 0 0 10.102-5.065c.829-8.593-1.415-16.04-5.931-22.642zM22.33 33.566c-1.968 0-3.594-1.785-3.594-3.982s1.57-3.998 3.587-3.998c2.018 0 3.631 1.8 3.597 3.998-.035 2.197-1.585 3.982-3.59 3.982zm13.256 0c-1.971 0-3.59-1.785-3.59-3.982s1.569-3.998 3.59-3.998c2.02 0 3.621 1.8 3.587 3.998-.035 2.197-1.582 3.982-3.587 3.982z" fill="#5865F2"/></g><defs><clipPath id="a"><path fill="#fff" transform="translate(9.008 12.95)" d="M0 0h39.9v30.24H0z"/></clipPath></defs></svg>