<svg width="56" height="56" fill="none" xmlns="http://www.w3.org/2000/svg"><path d="M0 10.48c0-3.67 0-5.503.714-6.904A6.55 6.55 0 0 1 3.576.714C4.977 0 6.811 0 10.48 0h35.04c3.668 0 5.503 0 6.904.714a6.55 6.55 0 0 1 2.862 2.862C56 4.977 56 6.811 56 10.48v35.04c0 3.668 0 5.503-.714 6.904a6.549 6.549 0 0 1-2.862 2.862C51.023 56 49.189 56 45.52 56H10.48c-3.669 0-5.503 0-6.904-.714a6.55 6.55 0 0 1-2.862-2.862C0 51.023 0 49.189 0 45.52V10.48z" fill="#fff"/><mask id="a" style="mask-type:alpha" maskUnits="userSpaceOnUse" x="15" y="11" width="25" height="35"><path d="M30.443 11.037H17.316A2.323 2.323 0 0 0 15 13.353v29.341a2.323 2.323 0 0 0 2.316 2.317h20.076a2.323 2.323 0 0 0 2.316-2.317V20.302l-9.265-9.265z" fill="#fff"/></mask><g mask="url(#a)"><path d="M30.443 11.037H17.316A2.323 2.323 0 0 0 15 13.353v29.341a2.323 2.323 0 0 0 2.316 2.317h20.076a2.323 2.323 0 0 0 2.316-2.317V20.302l-5.404-3.86-3.861-5.405z" fill="#4285F4"/></g><mask id="b" style="mask-type:alpha" maskUnits="userSpaceOnUse" x="15" y="11" width="25" height="35"><path d="M30.443 11.037H17.316A2.323 2.323 0 0 0 15 13.353v29.341a2.323 2.323 0 0 0 2.316 2.317h20.076a2.323 2.323 0 0 0 2.316-2.317V20.302l-9.265-9.265z" fill="#fff"/></mask><g mask="url(#b)"><path d="M31.12 19.625l8.588 8.586v-7.908l-8.588-.678z" fill="url(#c)"/></g><mask id="c" style="mask-type:alpha" maskUnits="userSpaceOnUse" x="15" y="11" width="25" height="35"><path d="M30.443 11.037H17.316A2.323 2.323 0 0 0 15 13.353v29.341a2.323 2.323 0 0 0 2.316 2.317h20.076a2.323 2.323 0 0 0 2.316-2.317V20.302l-9.265-9.265z" fill="#fff"/></mask><g mask="url(#c)"><path d="M21.177 35.745h12.354v-1.544H21.177v1.544zm0 3.089h9.266V37.29h-9.266v1.544zm0-10.81v1.544h12.354v-1.544H21.177zm0 4.633h12.354v-1.544H21.177v1.544z" fill="#F1F1F1"/></g><mask id="d" style="mask-type:alpha" maskUnits="userSpaceOnUse" x="15" y="11" width="25" height="35"><path d="M30.443 11.037H17.316A2.323 2.323 0 0 0 15 13.353v29.341a2.323 2.323 0 0 0 2.316 2.317h20.076a2.323 2.323 0 0 0 2.316-2.317V20.302l-9.265-9.265z" fill="#fff"/></mask><g mask="url(#d)"><path d="M30.443 11.037v6.949a2.316 2.316 0 0 0 2.316 2.316h6.95l-9.266-9.265z" fill="#A1C2FA"/></g><mask id="e" style="mask-type:alpha" maskUnits="userSpaceOnUse" x="15" y="11" width="25" height="35"><path d="M30.443 11.037H17.316A2.323 2.323 0 0 0 15 13.353v29.341a2.323 2.323 0 0 0 2.316 2.317h20.076a2.323 2.323 0 0 0 2.316-2.317V20.302l-9.265-9.265z" fill="#fff"/></mask><g mask="url(#e)"><path d="M17.316 11.037A2.323 2.323 0 0 0 15 13.353v.193a2.323 2.323 0 0 1 2.316-2.316h13.127v-.193H17.316z" fill="#fff" fill-opacity=".2"/></g><mask id="f" style="mask-type:alpha" maskUnits="userSpaceOnUse" x="15" y="11" width="25" height="35"><path d="M30.443 11.037H17.316A2.323 2.323 0 0 0 15 13.353v29.341a2.323 2.323 0 0 0 2.316 2.317h20.076a2.323 2.323 0 0 0 2.316-2.317V20.302l-9.265-9.265z" fill="#fff"/></mask><g mask="url(#f)"><path d="M37.392 44.818H17.316A2.323 2.323 0 0 1 15 42.502v.193a2.323 2.323 0 0 0 2.316 2.316h20.076a2.323 2.323 0 0 0 2.316-2.316v-.193a2.323 2.323 0 0 1-2.316 2.316z" fill="#1A237E" fill-opacity=".2"/></g><mask id="g" style="mask-type:alpha" maskUnits="userSpaceOnUse" x="15" y="11" width="25" height="35"><path d="M30.443 11.037H17.316A2.323 2.323 0 0 0 15 13.353v29.341a2.323 2.323 0 0 0 2.316 2.317h20.076a2.323 2.323 0 0 0 2.316-2.317V20.302l-9.265-9.265z" fill="#fff"/></mask><g mask="url(#g)"><path d="M32.759 20.303a2.316 2.316 0 0 1-2.316-2.317v.193a2.316 2.316 0 0 0 2.316 2.317h6.95v-.193h-6.95z" fill="#1A237E" fill-opacity=".1"/></g><path d="M30.443 11.037H17.316A2.323 2.323 0 0 0 15 13.353v29.341a2.323 2.323 0 0 0 2.316 2.317h20.076a2.323 2.323 0 0 0 2.316-2.317V20.302l-9.265-9.265z" fill="url(#i)"/><defs><radialGradient id="i" cx="0" cy="0" r="1" gradientUnits="userSpaceOnUse" gradientTransform="matrix(39.8421 0 0 39.6122 15.783 11.708)"><stop stop-color="#fff" stop-opacity=".1"/><stop offset="1" stop-color="#fff" stop-opacity="0"/></radialGradient><linearGradient id="c" x1="35.415" y1="20.362" x2="35.415" y2="28.212" gradientUnits="userSpaceOnUse"><stop stop-color="#1A237E" stop-opacity=".2"/><stop offset="1" stop-color="#1A237E" stop-opacity=".02"/></linearGradient></defs></svg>