<svg width="56" height="56" fill="none" xmlns="http://www.w3.org/2000/svg"><path d="M0 8.96c0-3.136 0-4.704.61-5.902A5.6 5.6 0 0 1 3.058.61C4.256 0 5.824 0 8.96 0h38.08c3.136 0 4.704 0 5.902.61a5.6 5.6 0 0 1 2.448 2.448C56 4.256 56 5.824 56 8.96v38.08c0 3.136 0 4.704-.61 5.902a5.6 5.6 0 0 1-2.448 2.448c-1.198.61-2.766.61-5.902.61H8.96c-3.136 0-4.704 0-5.902-.61A5.6 5.6 0 0 1 .61 52.942C0 51.744 0 50.176 0 47.04V8.96z" fill="#fff"/><g clip-path="url(#a)"><path d="M45.23 10.325H18.725c-.91 0-1.656.749-1.656 1.658v7.041l14.91 4.349 14.908-4.35V11.98c0-.907-.748-1.656-1.657-1.656z" fill="#41A5EE"/><path d="M46.886 19.022H17.067v8.7l14.91 4.348 14.91-4.349v-8.699h-.002z" fill="#2B7CD3"/><path d="M46.886 27.72H17.067v8.698l14.91 4.348 14.91-4.348V27.72h-.002z" fill="#185ABD"/><path d="M46.886 36.418H17.067v7.042c0 .909.748 1.655 1.656 1.655h26.505c.91 0 1.656-.748 1.656-1.655l.002-7.042z" fill="#103F91"/><path d="M27.835 16.537H17.067v23.608h10.768a1.668 1.668 0 0 0 1.655-1.656V18.195a1.67 1.67 0 0 0-1.655-1.658z" fill="#000" fill-opacity=".098"/><path d="M26.593 17.78h-9.526v23.608h9.526a1.669 1.669 0 0 0 1.656-1.657V19.438a1.67 1.67 0 0 0-1.656-1.657zm0 0h-9.526v21.123h9.526a1.668 1.668 0 0 0 1.656-1.655v-17.81a1.67 1.67 0 0 0-1.656-1.657zm-1.243 0h-8.283v21.123h8.283a1.668 1.668 0 0 0 1.655-1.655v-17.81a1.67 1.67 0 0 0-1.655-1.657z" fill="#000" fill-opacity=".2"/><path d="M8.781 17.78h16.566c.909 0 1.657.749 1.657 1.656v16.566c0 .91-.748 1.656-1.657 1.656H8.78a1.663 1.663 0 0 1-1.655-1.656V19.436c0-.909.748-1.655 1.655-1.655z" fill="#185ABD"/><path d="M21.972 33.933h-2.236l-2.61-8.574-2.732 8.574h-2.238L9.671 21.508h2.238l1.738 8.697 2.61-8.448h1.863l2.485 8.45 1.739-8.698h2.113l-2.485 12.424z" fill="#fff"/></g><defs><clipPath id="a"><path fill="#fff" transform="translate(7.124 7.84)" d="M0 0h39.76v39.76H0z"/></clipPath></defs></svg>