<svg width="57" height="56" fill="none" xmlns="http://www.w3.org/2000/svg"><path d="M.676 9.956c0-3.485 0-5.228.678-6.559A6.222 6.222 0 0 1 4.074.678C5.403 0 7.146 0 10.63 0h36.09c3.484 0 5.226 0 6.557.678a6.222 6.222 0 0 1 2.72 2.72c.678 1.33.678 3.073.678 6.558v36.088c0 3.485 0 5.228-.678 6.559a6.222 6.222 0 0 1-2.72 2.719C51.948 56 50.205 56 46.72 56H10.631c-3.484 0-5.227 0-6.558-.678a6.222 6.222 0 0 1-2.719-2.72c-.678-1.33-.678-3.073-.678-6.558V9.956z" fill="#fff"/><path fill-rule="evenodd" clip-rule="evenodd" d="M17.205 15.987c1.135.935 1.561.864 3.694.72l20.1-1.224c.427 0 .073-.431-.07-.503l-3.338-2.446c-.64-.503-1.492-1.08-3.125-.935l-19.464 1.439c-.71.07-.852.43-.57.719l2.773 2.23zm1.207 4.748V42.17c0 1.152.568 1.583 1.846 1.511l22.092-1.295c1.279-.071 1.421-.864 1.421-1.8V19.295c0-.934-.355-1.438-1.138-1.366l-23.085 1.366c-.852.073-1.136.505-1.136 1.44zm21.808 1.15c.142.648 0 1.295-.64 1.368l-1.065.215v15.825c-.924.504-1.776.791-2.486.791-1.137 0-1.422-.36-2.274-1.438l-6.962-11.078v10.718l2.203.504s0 1.294-1.777 1.294l-4.9.289c-.143-.288 0-1.007.497-1.151l1.278-.36v-14.17l-1.775-.145c-.143-.648.212-1.582 1.207-1.655l5.257-.36 7.246 11.223v-9.927l-1.848-.215c-.141-.793.426-1.368 1.137-1.44l4.902-.288zm-26.852-10.79l20.245-1.51c2.486-.217 3.126-.072 4.689 1.079l6.463 4.603c1.066.792 1.421 1.007 1.421 1.87v25.25c0 1.582-.569 2.518-2.557 2.661l-23.511 1.44c-1.493.072-2.204-.144-2.985-1.152l-4.76-6.258c-.852-1.152-1.207-2.014-1.207-3.022V13.612c0-1.294.569-2.373 2.201-2.517z" fill="#000"/></svg>