<svg width="57" height="56" fill="none" xmlns="http://www.w3.org/2000/svg"><path d="M.333 9.956c0-3.485 0-5.228.679-6.559A6.222 6.222 0 0 1 3.73.678C5.06 0 6.804 0 10.289 0h36.089c3.485 0 5.227 0 6.558.678a6.222 6.222 0 0 1 2.72 2.72c.677 1.33.677 3.073.677 6.558v36.088c0 3.485 0 5.228-.678 6.559a6.222 6.222 0 0 1-2.719 2.719C51.605 56 49.863 56 46.378 56h-36.09c-3.484 0-5.226 0-6.557-.678a6.222 6.222 0 0 1-2.72-2.72c-.678-1.33-.678-3.073-.678-6.558V9.956z" fill="#fff"/><g clip-path="url(#a)"><path d="M45.444 29.122a.834.834 0 0 0-.397-.717h-.005l-.015-.009L32.09 20.74a1.736 1.736 0 0 0-1.94 0l-12.936 7.657-.015.01a.843.843 0 0 0 .02 1.443l12.936 7.658a1.736 1.736 0 0 0 1.94 0l12.936-7.658a.833.833 0 0 0 .413-.727z" fill="#0A2767"/><path d="M18.722 24.009h8.49v7.781h-8.49v-7.78zm24.986-7.91v-3.56a1.613 1.613 0 0 0-1.574-1.65h-22.03c-.89.021-1.595.76-1.574 1.65v3.56l13.023 3.472 12.155-3.473z" fill="#0364B8"/><path d="M18.53 16.098h8.682v7.814H18.53v-7.814z" fill="#0078D4"/><path d="M35.894 16.098h-8.682v7.814l8.682 7.814h7.814v-7.814l-7.814-7.814z" fill="#28A8EA"/><path d="M27.212 23.912h8.682v7.814h-8.682v-7.814z" fill="#0078D4"/><path d="M27.212 31.726h8.682v7.814h-8.682v-7.814z" fill="#0364B8"/><path d="M18.722 31.79h8.49v7.075h-8.49V31.79z" fill="#14447D"/><path d="M35.894 31.726h7.814v7.814h-7.814v-7.814z" fill="#0078D4"/><path d="M45.047 29.801l-.017.009-12.936 7.276a1.803 1.803 0 0 1-.875.27l-.707-.413a1.77 1.77 0 0 1-.174-.1l-13.11-7.482h-.006l-.429-.24V43.85a1.78 1.78 0 0 0 1.791 1.767h25.097c.015 0 .028-.006.043-.006a2.21 2.21 0 0 0 .608-.127c.085-.036.166-.078.244-.127.058-.033.158-.105.158-.105.445-.33.708-.849.71-1.402V29.12a.781.781 0 0 1-.397.68z" fill="url(#b)"/><path opacity=".5" d="M44.75 29.063v.903L31.223 39.28l-14.004-9.913a.009.009 0 0 0-.009-.009l-1.285-.772v-.651l.53-.01 1.12.643.026.01.095.06s13.162 7.51 13.197 7.527l.504.296c.043-.018.087-.035.139-.053.026-.017 13.066-7.353 13.066-7.353l.148.008z" fill="#0A2767"/><path d="M45.047 29.801l-.017.01-12.936 7.276a1.814 1.814 0 0 1-1.94 0L17.218 29.81l-.016-.01a.781.781 0 0 1-.409-.68v14.73a1.78 1.78 0 0 0 1.79 1.768h25.071a1.78 1.78 0 0 0 1.79-1.768V29.12a.782.782 0 0 1-.397.68z" fill="#1490DF"/><path opacity=".1" d="M32.282 36.979l-.193.108a1.797 1.797 0 0 1-.856.279l4.921 5.82 8.586 2.07c.235-.178.422-.412.544-.68l-13.002-7.597z" fill="#000"/><path opacity=".05" d="M33.159 36.486l-1.07.601a1.797 1.797 0 0 1-.856.279l2.305 6.358 11.205 1.529c.441-.332.701-.851.701-1.403v-.19L33.16 36.486z" fill="#000"/><path d="M18.608 45.618h25.044a1.8 1.8 0 0 0 1.072-.348L30.51 36.945a1.777 1.777 0 0 1-.174-.1l-13.11-7.482h-.006l-.428-.241V43.8c0 1.003.812 1.817 1.815 1.818z" fill="#28A8EA"/><path opacity=".1" d="M28.948 19.426v18.52a1.596 1.596 0 0 1-.998 1.475c-.187.08-.388.122-.59.122H16.792v-20.84h1.737v-.868h8.83a1.595 1.595 0 0 1 1.588 1.591z" fill="#000"/><path opacity=".2" d="M28.08 20.294v18.52a1.41 1.41 0 0 1-.13.607 1.582 1.582 0 0 1-1.459.987h-9.698V18.703h9.698c.252-.003.5.06.72.182.533.268.869.813.87 1.41z" fill="#000"/><path opacity=".2" d="M28.08 20.294v16.783a1.603 1.603 0 0 1-1.589 1.595h-9.698v-19.97h9.698c.252-.002.5.061.72.183.533.268.869.813.869 1.41z" fill="#000"/><path opacity=".2" d="M27.212 20.294v16.783a1.597 1.597 0 0 1-1.589 1.595h-8.83v-19.97h8.83a1.59 1.59 0 0 1 1.589 1.592z" fill="#000"/><path d="M9.703 18.703H25.62a1.59 1.59 0 0 1 1.591 1.591v15.918a1.59 1.59 0 0 1-1.591 1.592H9.703a1.591 1.591 0 0 1-1.592-1.592V20.294c0-.879.713-1.591 1.592-1.591z" fill="url(#c)"/><path d="M13.085 25.378a4.629 4.629 0 0 1 1.818-2.008 5.495 5.495 0 0 1 2.889-.725 5.115 5.115 0 0 1 2.673.687 4.587 4.587 0 0 1 1.768 1.919c.427.878.639 1.845.62 2.822a6.536 6.536 0 0 1-.638 2.952 4.698 4.698 0 0 1-1.823 1.985 5.319 5.319 0 0 1-2.773.705 5.227 5.227 0 0 1-2.732-.694 4.658 4.658 0 0 1-1.792-1.923 6.045 6.045 0 0 1-.627-2.787 6.715 6.715 0 0 1 .617-2.933zm1.938 4.714c.209.529.564.987 1.023 1.322a2.671 2.671 0 0 0 1.597.48 2.798 2.798 0 0 0 1.705-.496c.454-.334.799-.793.994-1.322.217-.59.325-1.214.316-1.843a5.61 5.61 0 0 0-.298-1.866 2.952 2.952 0 0 0-.962-1.377 2.642 2.642 0 0 0-1.69-.521 2.756 2.756 0 0 0-1.635.485 3.03 3.03 0 0 0-1.042 1.333 5.296 5.296 0 0 0-.007 3.807l-.001-.002z" fill="#fff"/><path d="M35.894 16.098h7.814v7.814h-7.814v-7.814z" fill="#50D9FF"/></g><defs><linearGradient id="b" x1="31.119" y1="29.122" x2="31.119" y2="45.618" gradientUnits="userSpaceOnUse"><stop stop-color="#35B8F1"/><stop offset="1" stop-color="#28A8EA"/></linearGradient><linearGradient id="c" x1="11.429" y1="17.459" x2="23.894" y2="39.047" gradientUnits="userSpaceOnUse"><stop stop-color="#1784D9"/><stop offset=".5" stop-color="#107AD5"/><stop offset="1" stop-color="#0A63C9"/></linearGradient><clipPath id="a"><path fill="#fff" transform="translate(8.111 10.889)" d="M0 0h37.333v34.729H0z"/></clipPath></defs></svg>