<svg width="57" height="56" fill="none" xmlns="http://www.w3.org/2000/svg"><path d="M.775 9.956c0-3.485 0-5.228.679-6.559A6.222 6.222 0 0 1 4.173.678C5.503 0 7.246 0 10.73 0h36.09c3.485 0 5.227 0 6.558.678a6.222 6.222 0 0 1 2.72 2.72c.677 1.33.677 3.073.677 6.558v36.088c0 3.485 0 5.228-.678 6.559a6.222 6.222 0 0 1-2.719 2.719C52.047 56 50.305 56 46.82 56H10.73c-3.484 0-5.226 0-6.557-.678a6.222 6.222 0 0 1-2.72-2.72c-.678-1.33-.678-3.073-.678-6.558V9.956z" fill="#fff"/><path d="M34.662 25.735c-.337 0-.574.112-.731.345-.157.234-.238.568-.238.993 0 .425.08.762.238.999.157.234.396.348.73.348.335 0 .576-.115.735-.35.16-.238.24-.573.24-.998 0-.425-.08-.76-.24-.992-.159-.232-.398-.345-.734-.345z" fill="#00A1E0"/><path d="M41.51 17.062a9.606 9.606 0 0 0-3.833.796 7.824 7.824 0 0 0-6.79-3.921 7.812 7.812 0 0 0-5.578 2.33v.008C23.759 14.283 21.285 13 18.519 13c-4.72 0-8.552 3.716-8.552 8.314 0 1.137.237 2.262.703 3.306C8.478 25.88 7 28.21 7 30.887c0 3.984 3.282 7.227 7.34 7.227.508 0 1.014-.05 1.51-.153C16.966 40.906 19.86 43 23.272 43c3.411 0 6.07-1.937 7.275-4.692.948.45 1.987.682 3.04.68a6.978 6.978 0 0 0 6.047-3.464 9.855 9.855 0 0 0 1.875.181c5.239 0 9.491-4.172 9.491-9.321 0-5.15-4.252-9.322-9.49-9.322zM16.457 27.873c0 .753-.56 1.22-1.463 1.22-.443 0-.866-.067-1.316-.299-.084-.047-.168-.09-.25-.148-.009-.012-.047-.026-.02-.097l.178-.484c.027-.082.092-.055.118-.039.048.028.086.055.149.091.525.323 1.01.326 1.162.326.391 0 .636-.203.636-.475v-.014c0-.297-.375-.41-.809-.539l-.095-.028c-.595-.166-1.232-.405-1.232-1.139v-.015c0-.696.577-1.183 1.403-1.183h.09a2.6 2.6 0 0 1 1.294.339c.03.017.062.053.044.099l-.184.482c-.033.082-.12.026-.12.026a2.663 2.663 0 0 0-1.146-.285c-.35 0-.576.181-.576.427v.014c0 .287.386.41.834.551l.078.024c.592.181 1.225.434 1.225 1.13v.016zm3.701.969s-.093.025-.18.044c-.213.045-.426.085-.641.12a4.839 4.839 0 0 1-.774.064c-.262 0-.476-.022-.676-.068a1.413 1.413 0 0 1-.52-.219 1.042 1.042 0 0 1-.332-.389 1.266 1.266 0 0 1-.117-.566c0-.22.045-.41.136-.574.089-.162.217-.302.37-.409a1.66 1.66 0 0 1 .532-.24c.197-.053.41-.08.627-.08.16 0 .295.004.398.012l.003.006s.203.017.42.049v-.106c0-.33-.07-.488-.21-.592-.142-.105-.355-.16-.63-.16 0 0-.62-.008-1.11.251-.023.013-.043.02-.043.02s-.061.021-.084-.04l-.18-.473c-.028-.067.022-.099.022-.099.23-.175.785-.28.785-.28.185-.036.494-.061.684-.061.51 0 .903.115 1.171.343.27.228.406.598.406 1.096v2.267s.006.066-.057.082v.002zm1.71.08c0 .04-.03.075-.072.075h-.676c-.043 0-.072-.034-.072-.075V23.62c0-.04.03-.075.072-.075h.676c.042 0 .073.033.073.075v5.302zm4.227-1.709c-.006.065-.074.065-.074.065h-2.555c.015.376.109.643.296.825.184.178.479.293.873.293.607.002.865-.118 1.048-.184 0 0 .071-.025.097.044l.167.455c.033.077.006.104-.022.118-.158.087-.546.247-1.283.249-.36 0-.67-.049-.927-.147a1.688 1.688 0 0 1-.642-.414 1.637 1.637 0 0 1-.368-.631 2.584 2.584 0 0 1-.117-.794c0-.286.038-.548.112-.792a1.672 1.672 0 0 1 .933-1.082c.234-.107.524-.159.842-.159.25 0 .5.05.731.145.16.066.32.188.485.36.104.108.262.346.327.58h.001c.163.56.08 1.043.076 1.07zm2.107 1.879c-.443 0-.867-.068-1.316-.3-.084-.046-.168-.089-.25-.147-.01-.013-.048-.027-.02-.098h-.002l.178-.483c.026-.079.102-.05.118-.04.049.03.086.055.149.092.524.323 1.01.326 1.162.326.392 0 .636-.204.636-.476v-.014c0-.296-.374-.41-.809-.539l-.095-.028c-.595-.165-1.232-.405-1.232-1.138v-.014c0-.696.577-1.183 1.403-1.183h.09a2.6 2.6 0 0 1 1.294.339c.031.017.062.053.044.099-.015.044-.165.438-.183.482-.032.082-.12.026-.12.026a2.67 2.67 0 0 0-1.146-.285c-.349 0-.575.181-.575.427v.014c0 .287.386.41.834.551l.078.024c.593.181 1.225.434 1.225 1.13v.015c0 .752-.56 1.22-1.463 1.22zm4.464-3.359c-.015.076-.086.073-.086.073h-.84l-.575 3.166a4.58 4.58 0 0 1-.224.835 1.635 1.635 0 0 1-.332.556 1.161 1.161 0 0 1-.47.32 1.898 1.898 0 0 1-.626.094 1.56 1.56 0 0 1-.373-.035 2.17 2.17 0 0 1-.233-.066c-.033-.011-.057-.05-.039-.1.018-.05.168-.451.19-.505.025-.064.091-.039.091-.039a.657.657 0 0 0 .138.044c.061.013.142.022.205.022a.943.943 0 0 0 .3-.042.47.47 0 0 0 .234-.175c.068-.084.12-.2.177-.353.057-.156.109-.362.154-.612l.572-3.109h-.564c-.068 0-.089-.03-.082-.08l.095-.516c.015-.076.086-.073.086-.073h.579l.03-.168c.086-.5.26-.877.513-1.126.255-.25.62-.378 1.08-.378a2.106 2.106 0 0 1 .598.085c.018.006.066.03.047.087l-.196.52c-.016.04-.027.064-.11.039a1.147 1.147 0 0 0-.341-.052.945.945 0 0 0-.273.038.536.536 0 0 0-.213.129.743.743 0 0 0-.18.264c-.094.263-.13.542-.134.56h.815c.068 0 .09.03.082.081l-.095.516zm3.722 2.13c-.075.243-.19.457-.343.637-.154.18-.35.323-.579.425-.23.102-.501.154-.806.154a1.99 1.99 0 0 1-.809-.154 1.625 1.625 0 0 1-.921-1.063 2.685 2.685 0 0 1-.112-.789c0-.282.037-.546.111-.788.075-.244.19-.459.343-.638.154-.18.35-.324.58-.428.23-.104.5-.158.807-.158.308 0 .58.052.809.157.231.105.425.25.579.429.153.18.268.394.343.638.072.242.11.508.11.788s-.038.547-.11.79h-.002zm3.125-2.607v-.01c-.023.067-.147.407-.19.52-.017.043-.044.073-.094.068 0 0-.147-.033-.28-.033-.117 0-.231.016-.343.047a.794.794 0 0 0-.315.185.932.932 0 0 0-.223.365c-.057.156-.084.403-.084.652v1.858a.077.077 0 0 1-.078.075h-.67a.077.077 0 0 1-.077-.075v-3.7c0-.041.03-.076.073-.076h.653c.044 0 .073.033.073.075v.303c.097-.13.271-.241.43-.31.16-.07.338-.123.658-.103.166.01.383.055.427.071h.001a.067.067 0 0 1 .036.09l.003-.002zm3.222 3.628c-.284.11-.68.186-1.067.186-.653 0-1.154-.183-1.487-.545-.333-.36-.501-.853-.501-1.461 0-.282.042-.548.123-.79.082-.245.205-.459.367-.638.161-.18.365-.325.606-.428.24-.104.522-.158.839-.158.213 0 .403.013.566.036.174.026.406.087.503.125.017.006.066.03.047.086l-.186.501c-.028.076-.088.05-.088.05a2.6 2.6 0 0 0-.797-.111c-.372 0-.653.122-.836.359-.184.239-.287.55-.289.966-.002.457.115.794.323 1.003.207.21.498.315.862.315.147 0 .286-.01.412-.028a1.76 1.76 0 0 0 .351-.098s.071-.027.097.044l.186.498c.024.061-.03.087-.03.087v.001zm3.78-1.672c-.006.064-.074.064-.074.064h-2.554c.014.377.108.643.296.826.184.177.477.292.873.292.606.002.865-.118 1.047-.184 0 0 .071-.025.096.044l.166.455c.034.078.007.104-.02.118-.16.087-.547.248-1.285.25-.357 0-.669-.05-.926-.147a1.69 1.69 0 0 1-.642-.414 1.622 1.622 0 0 1-.37-.632 2.634 2.634 0 0 1-.115-.793c0-.287.037-.548.112-.792a1.672 1.672 0 0 1 .933-1.082 2.04 2.04 0 0 1 .842-.16c.25 0 .5.05.73.146.16.066.32.187.486.359.103.108.262.346.326.58h.004c.163.56.079 1.043.076 1.07z" fill="#00A1E0"/><path d="M19.403 27.212a5.12 5.12 0 0 0-.692-.057c-.521-.006-.742.18-.74.18-.154.105-.229.263-.229.48 0 .138.026.247.076.323.034.05.047.069.147.148 0 0 .228.176.747.146.366-.022.689-.09.689-.09v-1.128l.002-.002zm5.014-1.496c-.335 0-.573.128-.73.36a1.41 1.41 0 0 0-.207.586h1.82c-.018-.228-.064-.431-.169-.585-.158-.233-.38-.36-.714-.36zm20.42 0c-.335 0-.573.128-.73.36a1.39 1.39 0 0 0-.207.586h1.82c-.018-.228-.064-.431-.169-.585-.158-.233-.38-.36-.715-.36z" fill="#00A1E0"/><path d="M26.02 26.143a1.552 1.552 0 0 0-.328-.581 1.488 1.488 0 0 0-.485-.36 1.906 1.906 0 0 0-.73-.144c-.319 0-.608.052-.843.159a1.671 1.671 0 0 0-.933 1.082 2.721 2.721 0 0 0-.111.792c0 .28.039.552.116.793.078.243.202.455.369.632.168.178.383.316.642.414.257.096.567.146.926.146.738-.003 1.125-.162 1.284-.249.027-.015.055-.042.021-.118l-.167-.455c-.025-.067-.097-.044-.097-.044-.182.066-.441.186-1.047.184-.395 0-.689-.114-.873-.292-.188-.183-.282-.45-.296-.827h2.554s.068 0 .075-.063c.003-.027.087-.51-.076-1.07h-.002zm-2.54.518a1.39 1.39 0 0 1 .208-.586c.157-.233.394-.36.729-.36.334 0 .556.127.714.36.106.153.15.358.169.586h-1.82zm12.91-.376a1.76 1.76 0 0 0-.343-.638 1.635 1.635 0 0 0-.579-.428 1.927 1.927 0 0 0-.808-.158c-.307 0-.577.054-.808.158a1.65 1.65 0 0 0-.922 1.066 2.685 2.685 0 0 0-.112.788c0 .282.038.547.112.79.074.243.19.457.343.637.153.18.349.323.578.425a2 2 0 0 0 .809.154c.306 0 .577-.052.807-.154.23-.102.425-.246.578-.425a1.76 1.76 0 0 0 .343-.638 2.73 2.73 0 0 0 .11-.789c0-.282-.037-.546-.11-.788h.002zm-.754.788c0 .424-.08.76-.24.997-.159.235-.4.35-.735.35-.334 0-.573-.114-.73-.348-.159-.236-.238-.573-.238-.999 0-.425.08-.759.238-.993.157-.233.394-.345.73-.345.337 0 .576.113.735.345.16.234.24.568.24.992v.001zm3.843-1.905h-.002a2.137 2.137 0 0 0-.426-.07c-.32-.02-.498.032-.659.102-.158.069-.333.18-.43.31v-.303c0-.04-.03-.075-.074-.075h-.653a.073.073 0 0 0-.073.075v3.7c0 .042.034.076.078.076h.67a.077.077 0 0 0 .077-.075V27.05c0-.249.027-.496.084-.652a.93.93 0 0 1 .223-.365.792.792 0 0 1 .315-.185c.112-.031.227-.047.343-.047.133 0 .28.033.28.033.048.005.076-.023.093-.067.044-.114.169-.454.193-.522v.011a.07.07 0 0 0-.037-.088h-.002zm3.103 3.132c-.024-.07-.097-.044-.097-.044-.11.04-.226.079-.35.098a2.804 2.804 0 0 1-.413.028c-.364 0-.655-.106-.862-.315-.208-.21-.325-.547-.323-1.003 0-.416.105-.727.29-.967.182-.236.463-.359.835-.359.31 0 .548.035.797.112 0 0 .058.025.088-.05l.186-.501c.019-.055-.03-.08-.047-.087a3.032 3.032 0 0 0-.503-.124 3.995 3.995 0 0 0-.566-.036 2.11 2.11 0 0 0-.84.157c-.24.104-.444.249-.605.428-.162.18-.285.394-.367.638a2.453 2.453 0 0 0-.123.79c0 .608.168 1.101.5 1.462.334.362.835.544 1.488.544.387 0 .783-.075 1.067-.185 0 0 .055-.026.031-.087l-.186-.497V28.3zm3.857-2.157a1.55 1.55 0 0 0-.327-.581 1.487 1.487 0 0 0-.485-.36 1.906 1.906 0 0 0-.73-.144c-.319 0-.608.052-.843.159a1.671 1.671 0 0 0-.933 1.082 2.725 2.725 0 0 0-.111.792c0 .28.039.552.115.793.077.243.202.455.37.632.168.178.383.316.642.414.257.096.569.146.926.146.737-.003 1.125-.162 1.284-.249.027-.015.055-.042.02-.118l-.166-.455c-.026-.067-.095-.044-.095-.044-.183.066-.441.186-1.048.184-.396 0-.688-.114-.873-.292-.187-.183-.281-.45-.296-.827h2.555s.068 0 .074-.063c.004-.027.088-.51-.076-1.07h-.003zm-2.538.518a1.39 1.39 0 0 1 .207-.586c.156-.233.394-.36.729-.36.334 0 .556.127.714.36.105.153.15.358.168.586h-1.818zm-14.234 1.211v-.014c0-.697-.633-.95-1.226-1.131l-.078-.024c-.447-.141-.834-.264-.834-.55v-.015c0-.246.227-.427.576-.427.388 0 .849.126 1.146.285 0 0 .087.056.12-.026.018-.044.168-.438.183-.482.017-.046-.013-.08-.044-.1a2.607 2.607 0 0 0-1.294-.338h-.09c-.826 0-1.404.487-1.404 1.183v.014c0 .733.637.973 1.232 1.138l.096.028c.435.13.808.243.808.539v.014c0 .272-.244.476-.635.476-.152 0-.639-.003-1.163-.326-.063-.037-.1-.062-.148-.092-.017-.01-.092-.039-.118.04l-.178.482h.001c-.027.07.01.086.02.099.082.058.166.1.25.148.45.231.873.299 1.316.299.903 0 1.464-.468 1.464-1.22zm-14.435-1.145l-.077-.024c-.448-.141-.835-.264-.835-.55v-.015c0-.246.227-.427.576-.427.388 0 .85.126 1.146.285 0 0 .087.056.12-.026.018-.044.168-.438.184-.482.018-.046-.013-.08-.044-.1a2.607 2.607 0 0 0-1.293-.338h-.09c-.827 0-1.404.487-1.404 1.183v.015c0 .734.637.973 1.232 1.139l.095.028c.434.13.809.242.809.538v.015c0 .272-.244.475-.636.475a2.18 2.18 0 0 1-1.162-.326c-.063-.036-.1-.061-.149-.091-.026-.016-.09-.043-.118.04l-.178.481c-.027.071.01.087.02.1.082.058.166.1.25.147.45.232.873.3 1.316.3.903 0 1.464-.468 1.464-1.22v-.015c0-.696-.634-.95-1.226-1.13v-.002zm4.578-1.331c-.268-.228-.66-.343-1.17-.343-.19 0-.5.025-.684.062 0 0-.556.105-.785.28 0 0-.05.03-.023.1l.181.471c.023.062.084.041.084.041s.02-.008.042-.02c.49-.26 1.11-.252 1.11-.252.276 0 .49.055.631.16.14.105.21.262.21.593v.105c-.218-.031-.42-.049-.42-.049l-.003-.006a5.577 5.577 0 0 0-.398-.011c-.218 0-.43.027-.627.079a1.664 1.664 0 0 0-.532.24 1.213 1.213 0 0 0-.37.41 1.17 1.17 0 0 0-.136.573c0 .218.039.411.116.567.076.154.191.288.333.389.143.1.317.175.52.219.2.044.426.067.675.067.262 0 .523-.022.775-.063.215-.036.428-.077.642-.12.085-.02.179-.045.179-.045.063-.016.058-.082.058-.082v-2.267c0-.498-.137-.868-.407-1.096v-.002zm-1.094 3.035c-.519.03-.748-.145-.747-.145a.49.49 0 0 1-.147-.148.585.585 0 0 1-.076-.323c0-.217.075-.375.228-.48-.002 0 .22-.186.74-.18.232.005.463.024.693.057v1.129s-.324.068-.69.09z" fill="#FFFFFE"/><path d="M32.68 25.137h-.815c.005-.018.04-.298.134-.56a.71.71 0 0 1 .18-.265.52.52 0 0 1 .213-.13.893.893 0 0 1 .274-.037 1.27 1.27 0 0 1 .34.052c.083.025.094 0 .11-.038l.196-.521c.02-.057-.029-.08-.047-.087a2.134 2.134 0 0 0-.598-.085c-.46 0-.824.128-1.08.378-.254.249-.427.628-.512 1.126l-.031.168h-.579s-.071-.003-.086.073l-.095.516c-.006.049.015.08.082.08h.565l-.573 3.109a3.71 3.71 0 0 1-.153.612 1.23 1.23 0 0 1-.178.353.467.467 0 0 1-.233.175.982.982 0 0 1-.3.042 1.19 1.19 0 0 1-.206-.022c-.061-.011-.092-.025-.137-.044 0 0-.067-.025-.093.04l-.189.505c-.017.049.007.088.04.099a1.676 1.676 0 0 0 .605.101c.235 0 .448-.032.626-.095s.335-.171.47-.32c.15-.16.243-.327.332-.555a4.7 4.7 0 0 0 .225-.835l.574-3.166h.84s.072.003.086-.073l.096-.516c.006-.049-.015-.08-.083-.08zm-10.884-1.592h-.676c-.044 0-.073.033-.073.075v5.302c0 .04.03.075.073.075h.675a.074.074 0 0 0 .073-.075V23.62a.073.073 0 0 0-.072-.075z" fill="#FFFFFE"/></svg>