<svg width="57" height="56" fill="none" xmlns="http://www.w3.org/2000/svg"><path d="M.367 9.956c0-3.485 0-5.228.678-6.559A6.222 6.222 0 0 1 3.765.678C5.095 0 6.838 0 10.323 0h36.089c3.484 0 5.227 0 6.558.678a6.222 6.222 0 0 1 2.719 2.72c.678 1.33.678 3.073.678 6.558v36.088c0 3.485 0 5.228-.678 6.559a6.222 6.222 0 0 1-2.72 2.719C51.64 56 49.897 56 46.413 56h-36.09c-3.484 0-5.226 0-6.557-.678a6.222 6.222 0 0 1-2.72-2.72c-.678-1.33-.678-3.073-.678-6.558V9.956z" fill="#fff"/><g clip-path="url(#a)"><path d="M17.287 33.197c0 2.3-1.826 4.157-4.086 4.157-2.26 0-4.086-1.858-4.086-4.157 0-2.3 1.826-4.158 4.086-4.158h4.086v4.158zm2.043 0c0-2.3 1.826-4.158 4.085-4.158 2.26 0 4.086 1.859 4.086 4.158V43.59c0 2.3-1.826 4.158-4.086 4.158-2.26 0-4.085-1.858-4.085-4.157V33.197z" fill="#E01E5A"/><path d="M23.415 16.504c-2.26 0-4.086-1.858-4.086-4.158 0-2.299 1.826-4.157 4.086-4.157 2.26 0 4.086 1.858 4.086 4.157v4.158h-4.086zm0 2.11c2.26 0 4.086 1.858 4.086 4.158 0 2.299-1.827 4.157-4.086 4.157H13.17c-2.26 0-4.086-1.858-4.086-4.157 0-2.3 1.826-4.158 4.086-4.158h10.245z" fill="#36C5F0"/><path d="M39.788 22.772c0-2.3 1.827-4.158 4.086-4.158 2.26 0 4.086 1.858 4.086 4.158 0 2.299-1.826 4.157-4.086 4.157h-4.086v-4.157zm-2.042 0c0 2.299-1.827 4.157-4.086 4.157-2.26 0-4.086-1.858-4.086-4.157V12.346c0-2.299 1.826-4.157 4.086-4.157 2.26 0 4.086 1.858 4.086 4.157v10.426z" fill="#2EB67D"/><path d="M33.66 39.433c2.26 0 4.086 1.858 4.086 4.157 0 2.3-1.827 4.158-4.086 4.158-2.26 0-4.086-1.858-4.086-4.157v-4.158h4.086zm0-2.079c-2.26 0-4.086-1.858-4.086-4.157 0-2.3 1.826-4.158 4.086-4.158h10.245c2.26 0 4.086 1.859 4.086 4.158 0 2.3-1.826 4.157-4.086 4.157H33.66z" fill="#ECB22E"/></g><defs><clipPath id="a"><path fill="#fff" transform="translate(8.867 8)" d="M0 0h39v40H0z"/></clipPath></defs></svg>